<svg width="150" height="150" viewBox="0 0 150 150" fill="none" xmlns="http://www.w3.org/2000/svg">
<rect width="150" height="150" rx="8" fill="white"/>
<path fill-rule="evenodd" clip-rule="evenodd" d="M87.4961 69.35L52.4496 39.0345C47.4018 34.668 40.333 34.1816 34.834 37.2773C29.8704 39.8326 26.4705 44.9935 26.4705 50.9588V97.2975C26.4705 105.799 33.3621 112.688 41.8614 112.688C50.3619 112.688 57.2523 105.799 57.2523 97.2975V83.89L67.3578 92.6305C73.7869 98.1924 83.5054 97.4898 89.0672 91.0594C94.6278 84.6303 93.924 74.9118 87.4961 69.35Z" fill="#0095FF"/>
<path fill-rule="evenodd" clip-rule="evenodd" d="M127.494 50.6901C127.499 46.9545 126.166 43.2001 123.409 40.2175C117.716 34.0624 108.009 33.8776 101.668 39.3615L80.8484 57.3706L90.7265 65.949C94.5362 69.2559 96.7257 74.0548 96.7257 79.1013V96.7886C96.7257 105.261 103.355 112.531 111.828 112.686C120.46 112.844 127.508 105.895 127.508 97.2977V50.9591C127.508 50.8686 127.495 50.7806 127.494 50.6901Z" fill="#00E096"/>
</svg>
