<svg width="73" height="19" viewBox="0 0 73 19" fill="none" xmlns="http://www.w3.org/2000/svg">
<path fill-rule="evenodd" clip-rule="evenodd" d="M3.1002 5.05998V14.98H0.700195V0.97998H3.3202L7.7002 7.77998L12.1002 0.97998H14.7202V14.98H12.3202V5.05998L7.7002 12.2L3.1002 5.05998ZM23.1602 14.85C22.5202 15.1233 21.8335 15.26 21.1002 15.26C20.3669 15.26 19.6802 15.1233 19.0402 14.85C18.4002 14.5766 17.8402 14.2 17.3602 13.72C16.8802 13.24 16.5035 12.68 16.2302 12.04C15.9569 11.4 15.8202 10.72 15.8202 9.99998C15.8202 9.26665 15.9569 8.57998 16.2302 7.93998C16.5035 7.29998 16.8802 6.73998 17.3602 6.25998C17.8402 5.77998 18.4002 5.40331 19.0402 5.12998C19.6802 4.85665 20.3669 4.71998 21.1002 4.71998C21.8335 4.71998 22.5202 4.85665 23.1602 5.12998C23.8002 5.40331 24.3602 5.77998 24.8402 6.25998C25.3202 6.73998 25.6969 7.29998 25.9702 7.93998C26.2435 8.57998 26.3802 9.26665 26.3802 9.99998C26.3802 10.72 26.2435 11.4 25.9702 12.04C25.6969 12.68 25.3202 13.24 24.8402 13.72C24.3602 14.2 23.8002 14.5766 23.1602 14.85ZM21.1002 12.86C20.7135 12.86 20.3435 12.79 19.9902 12.65C19.6369 12.51 19.3269 12.3 19.0602 12.02C18.5002 11.46 18.2202 10.7866 18.2202 9.99998C18.2202 9.19998 18.5002 8.51998 19.0602 7.95998C19.6202 7.39998 20.3002 7.11998 21.1002 7.11998C21.8735 7.11998 22.5535 7.39998 23.1402 7.95998C23.7002 8.51998 23.9802 9.19998 23.9802 9.99998C23.9802 10.7866 23.7002 11.46 23.1402 12.02C22.8602 12.3 22.5469 12.51 22.2002 12.65C21.8535 12.79 21.4869 12.86 21.1002 12.86ZM34.9802 4.99998H37.6202L32.9802 15H30.3402L25.7002 4.99998H28.3402L31.6602 12.16L34.9802 4.99998ZM42.3402 15.26C43.1402 15.26 43.8802 15.1033 44.5602 14.79C45.2402 14.4766 45.8202 14.04 46.3002 13.48L43.8002 12.48C43.3735 12.7333 42.8869 12.86 42.3402 12.86C41.9535 12.86 41.5869 12.79 41.2402 12.65C40.8935 12.51 40.5802 12.3 40.3002 12.02C40.0469 11.78 39.8535 11.5066 39.7202 11.2H47.4802C47.5735 10.8266 47.6202 10.4266 47.6202 9.99998C47.6202 9.26665 47.4835 8.57998 47.2102 7.93998C46.9369 7.29998 46.5602 6.73998 46.0802 6.25998C45.6002 5.77998 45.0402 5.40331 44.4002 5.12998C43.7602 4.85665 43.0735 4.71998 42.3402 4.71998C41.6069 4.71998 40.9202 4.85665 40.2802 5.12998C39.6402 5.40331 39.0802 5.77998 38.6002 6.25998C38.1202 6.73998 37.7435 7.29998 37.4702 7.93998C37.1969 8.57998 37.0602 9.26665 37.0602 9.99998C37.0602 10.72 37.1969 11.4 37.4702 12.04C37.7435 12.68 38.1202 13.24 38.6002 13.72C39.0802 14.2 39.6402 14.5766 40.2802 14.85C40.9202 15.1233 41.6069 15.26 42.3402 15.26ZM39.7202 8.79998H44.9602C44.8269 8.49331 44.6335 8.21331 44.3802 7.95998C43.8202 7.39998 43.1402 7.11998 42.3402 7.11998C41.5669 7.11998 40.8869 7.39998 40.3002 7.95998C40.0469 8.21331 39.8535 8.49331 39.7202 8.79998ZM54.5002 15.28C55.3135 15.28 56.0769 15.1266 56.7902 14.82C57.5035 14.5133 58.1269 14.0933 58.6602 13.56C59.1935 13.0266 59.6135 12.4033 59.9202 11.69C60.2269 10.9766 60.3802 10.2133 60.3802 9.39998V0.99998H57.9802V9.39998C57.9802 9.86665 57.8935 10.31 57.7202 10.73C57.5469 11.15 57.2935 11.5266 56.9602 11.86C56.2802 12.54 55.4602 12.88 54.5002 12.88C54.0335 12.88 53.5902 12.7933 53.1702 12.62C52.7502 12.4466 52.3735 12.1933 52.0402 11.86C51.7069 11.5266 51.4535 11.15 51.2802 10.73C51.1069 10.31 51.0202 9.86665 51.0202 9.39998V0.99998H48.6202V9.39998C48.6202 10.2133 48.7735 10.9766 49.0802 11.69C49.3869 12.4033 49.8069 13.0266 50.3402 13.56C50.8735 14.0933 51.4969 14.5133 52.2102 14.82C52.9235 15.1266 53.6869 15.28 54.5002 15.28ZM64.0802 9.99998V19H61.6802V4.97998H64.0802V5.77998C64.4669 5.47331 64.9135 5.21998 65.4202 5.01998C65.9269 4.81998 66.5069 4.71998 67.1602 4.71998C67.8935 4.71998 68.5702 4.85665 69.1902 5.12998C69.8102 5.40331 70.3469 5.77998 70.8002 6.25998C71.2535 6.73998 71.6069 7.29998 71.8602 7.93998C72.1135 8.57998 72.2402 9.26665 72.2402 9.99998C72.2402 10.72 72.1135 11.4 71.8602 12.04C71.6069 12.68 71.2535 13.24 70.8002 13.72C70.3469 14.2 69.8102 14.5766 69.1902 14.85C68.5702 15.1233 67.8935 15.26 67.1602 15.26C66.3469 15.26 65.6335 15.1066 65.0202 14.8L65.8802 12.66C66.2002 12.7933 66.5602 12.86 66.9602 12.86C67.3469 12.86 67.7135 12.79 68.0602 12.65C68.4069 12.51 68.7202 12.3 69.0002 12.02C69.5602 11.46 69.8402 10.7866 69.8402 9.99998C69.8402 9.19998 69.5602 8.51998 69.0002 7.95998C68.4135 7.39998 67.7335 7.11998 66.9602 7.11998C66.1602 7.11998 65.4802 7.39998 64.9202 7.95998C64.3602 8.51998 64.0802 9.19998 64.0802 9.99998Z" fill="#222B45"/>
</svg>
